<svg width="32" height="32" viewBox="0 0 32 32" fill="none" xmlns="http://www.w3.org/2000/svg">
  <path d="M16 21C18.7614 21 21 18.7614 21 16C21 13.2386 18.7614 11 16 11C13.2386 11 11 13.2386 11 16C11 18.7614 13.2386 21 16 21Z" fill="#F472B6"/>
  <path d="M16 11C16 11 13 4 8 4C3 4 3 9 3 9C3 14 10 16 10 16" stroke="#F472B6" stroke-width="2" stroke-linecap="round"/>
  <path d="M16 11C16 11 19 4 24 4C29 4 29 9 29 9C29 14 22 16 22 16" stroke="#F472B6" stroke-width="2" stroke-linecap="round"/>
  <path d="M16 21C16 21 13 28 8 28C3 28 3 23 3 23C3 18 10 16 10 16" stroke="#F472B6" stroke-width="2" stroke-linecap="round"/>
  <path d="M16 21C16 21 19 28 24 28C29 28 29 23 29 23C29 18 22 16 22 16" stroke="#F472B6" stroke-width="2" stroke-linecap="round"/>
  <circle cx="16" cy="16" r="3" fill="#FBDB14"/>
</svg>
